# xmcd
#
# Track frame offsets:
# 150
# 13073
# 31585
# 62208
# 86867
# 117808
# 148746
# 163910
#
# Disc length: 2506 seconds
#
# Revision: 0
# Processed by: cddbd v1.4PL0 Copyright (c) Steve Scherf et al.
# Submitted via: Audion 3.0.2 (http://www.panic.com/audion/)
#
DISCID=6909c808
DTITLE=Dave Brubeck Quartet - My Favorite Things 
DYEAR=1900
DGENRE=
TTITLE0=My Favorite Things
TTITLE1=Over And Over Again
TTITLE2=Why Can't I?
TTITLE3=Little Girl Blue
TTITLE4=This Can't Be Love
TTITLE5=My Romance
TTITLE6=The Circus On Parade
TTITLE7=The Most Beautiful Girl In The World
EXTD=
EXTT0=
EXTT1=
EXTT2=
EXTT3=
EXTT4=
EXTT5=
EXTT6=
EXTT7=
PLAYORDER=
